# xmcd
#
# Track frame offsets:
#	150
#	16840
#	39102
#	59750
#	85275
#	103750
#	124692
#	144687
#	167850
#	187185
#	212040
#	231637
#	251017
#	278025
#	296162
#	311925
#	327500
#
# Disc length: 4616 seconds
#
# Revision: 7
# Processed by: cddbd v1.5.2PL0 Copyright (c) Steve Scherf et al.
# Submitted via: EasyCDDAExtractor 2011.0.0.0
#
DISCID=10120611
DTITLE=Duran Duran - The Very Best
DYEAR=1996
DGENRE=Pop
TTITLE0=Big thing
TTITLE1=Too much information
TTITLE2=All she wants is
TTITLE3=Ordinary world
TTITLE4=I don't want your love
TTITLE5=Come undone
TTITLE6=Do you believe in shame
TTITLE7=Thank you
TTITLE8=Wild boys
TTITLE9=The reflex
TTITLE10=Union of the snake
TTITLE11=Notorious
TTITLE12=Sin trade
TTITLE13=Planeth earth
TTITLE14=Girls on film
TTITLE15=Hungry like the wolf
TTITLE16=Is there something i should know
EXTD=YEAR: 1996
EXTT0=
EXTT1=
EXTT2=
EXTT3=
EXTT4=
EXTT5=
EXTT6=
EXTT7=
EXTT8=
EXTT9=
EXTT10=
EXTT11=
EXTT12=
EXTT13=
EXTT14=
EXTT15=
EXTT16=
PLAYORDER=
